<svg xmlns="http://www.w3.org/2000/svg" width="130" height="195" fill="none"><path fill="#fff" d="m89 45.957 24.42-14.682v120.383c3.899-2.598 8.307-5.483 10.607-6.794l5.446 9.557c-2.052 1.169-6.579 4.134-10.778 6.939a1060.365 1060.365 0 0 0-5.383 3.623c-.702.476-1.275.867-1.672 1.137a63.056 63.056 0 0 0-.578.394l-.029.02a.092.092 0 0 1-.008.005l-.002.001-8.603 5.882V50.725L89 58.793v119.84l-24.254 15.409-23.666-15.454V104.5h22.17v11H52.08v57.133l12.748 8.324L78 172.589V65.407L64.16 73.73 28.58 51.03v120.812l-8.383-5.158-.003-.003a.04.04 0 0 0-.01-.006l-.037-.023-.147-.091-.563-.345-2.024-1.246-6.314-3.886-10.982-6.759 5.766-9.368 10.981 6.759.716.44V30.967L64.33 60.79 78 52.57V31H40.75V20H89v25.957ZM88.75 15h-48l23-15 25 15Z"/></svg>