<svg width="188" height="195" viewBox="0 0 188 195" fill="none" xmlns="http://www.w3.org/2000/svg">
<path d="M118 45.957L142.42 31.2754V151.658C146.319 149.06 150.727 146.175 153.027 144.864L158.473 154.421C156.421 155.59 151.894 158.555 147.695 161.36C145.637 162.735 143.718 164.031 142.312 164.983C141.61 165.459 141.037 165.85 140.64 166.12C140.441 166.255 140.286 166.361 140.182 166.433C140.129 166.468 140.089 166.495 140.062 166.514C140.049 166.523 140.04 166.53 140.033 166.534C140.03 166.536 140.027 166.538 140.025 166.539L140.023 166.54L131.42 172.422V50.7246L118 58.793V178.633L93.7461 194.042L70.0801 178.588V104.5H92.25V115.5H81.0801V172.633L93.8281 180.957L107 172.589V65.4072L93.1592 73.7285L57.5801 51.0312V171.843L49.1973 166.685C49.1964 166.684 49.1958 166.683 49.1943 166.682C49.1921 166.68 49.1888 166.678 49.1846 166.676C49.1761 166.671 49.1638 166.663 49.1475 166.653C49.1142 166.633 49.0645 166.602 49 166.562C48.8707 166.483 48.6802 166.366 48.4375 166.217C47.9522 165.918 47.2562 165.49 46.4131 164.971C44.7267 163.933 42.4518 162.533 40.0986 161.085C35.3923 158.189 30.3722 155.099 29.1172 154.326L34.8828 144.958C36.1378 145.73 41.1579 148.821 45.8643 151.717C46.1038 151.864 46.3427 152.011 46.5801 152.157V30.9678L93.3301 60.79L107 52.5703V31H69.75V20H118V45.957Z" fill="black"/>
<path d="M117.75 15H69.75L92.75 0L117.75 15Z" fill="black"/>
</svg>
